<svg width="411" height="794" viewBox="0 0 411 794" fill="none" xmlns="http://www.w3.org/2000/svg">
<rect x="20.5" y="73.5" width="370" height="700" rx="54.5" stroke="{{CURRENT_COLOR}}" stroke-width="41"/>
<rect x="122" width="167" height="78" rx="25" fill="{{CURRENT_COLOR}}"/>
<path d="M243.484 306.75C245.768 299.131 235.596 294.21 231.04 300.73L134.691 438.641C131.45 443.281 134.769 449.65 140.43 449.65H190.274C194.954 449.65 198.316 454.153 196.986 458.64L169.426 551.58C167.186 559.134 177.199 564.056 181.812 557.669L281.983 418.984C285.327 414.355 282.019 407.885 276.309 407.885H263.454H222.564C217.875 407.885 214.512 403.366 215.859 398.875L243.484 306.75Z" fill="{{CURRENT_COLOR}}"/>
<path d="M306 287C319.807 287 331 298.193 331 312V668.5C331 682.307 319.807 693.5 306 693.5H105C91.1929 693.5 80 682.307 80 668.5V312C80 298.193 91.1929 287 105 287H219.108L99.4678 443.257C91.9115 453.126 98.9484 467.376 111.378 467.376H160.284C170.324 467.376 177.529 477.047 174.657 486.667L146.525 580.897C141.804 596.712 162.363 607.443 172.638 594.526L312.46 418.747C320.278 408.919 313.279 394.409 300.721 394.409H254.139C244.166 394.409 236.97 384.858 239.721 375.271L265.054 287H306Z" fill="{{CURRENT_COLOR}}"/>
</svg>
