<svg width="1024" height="1024" viewBox="0 0 1024 1024" fill="none" xmlns="http://www.w3.org/2000/svg">
<rect x="0.5" y="0.5" width="1023" height="1023" stroke="{{CURRENT_COLOR}}"/>
<path d="M810 381L810 642C810 672.376 785.376 697 755 697L164 697C133.624 697 109 672.376 109 642L109 381C109 350.624 133.624 326 164 326L755 326C785.376 326 810 350.624 810 381Z" stroke="{{CURRENT_COLOR}}" stroke-width="40"/>
<rect x="934" y="408" width="208" height="78" rx="25" transform="rotate(90 934 408)" fill="{{CURRENT_COLOR}}"/>
<path d="M432.5 379C446.307 379 457.5 390.193 457.5 404L457.5 618C457.5 631.807 446.307 643 432.5 643L197 643C183.193 643 172 631.807 172 618L172 404C172 390.193 183.193 379 197 379L432.5 379Z" fill="{{CURRENT_COLOR}}"/>
</svg>
