<svg width="1024" height="1024" viewBox="0 0 1024 1024" fill="none" xmlns="http://www.w3.org/2000/svg">
<rect x="0.5" y="0.5" width="1023" height="1023" stroke="{{CURRENT_COLOR}}"/>
<rect x="934" y="408" width="208" height="78" rx="25" transform="rotate(90 934 408)" fill="{{CURRENT_COLOR}}"/>
<path d="M129 642C129 661.33 144.67 677 164 677H386.987L375.039 717H164L163.03 716.994C122.379 716.479 89.521 683.621 89.0059 642.97L89 642V381L89.0059 380.03C89.521 339.379 122.379 306.521 163.03 306.006L164 306H457.904L427.261 346H164C144.67 346 129 361.67 129 381V642ZM755 306C796.098 306 829.475 339.056 829.994 380.03L830 381V642L829.994 642.97C829.475 683.944 796.098 717 755 717H471.99L503.826 677H755C774.33 677 790 661.33 790 642V381C790 361.67 774.33 346 755 346H539.813L551.3 306H755Z" fill="{{CURRENT_COLOR}}"/>
<path d="M528.879 278.802C531.16 271.181 520.982 266.266 516.431 272.791L326.674 544.885C323.438 549.526 326.758 555.889 332.416 555.889H434.873C439.552 555.889 442.913 560.39 441.586 564.876L383.671 760.532C381.435 768.088 391.453 773.004 396.061 766.612L592.001 494.856C595.339 490.226 592.031 483.762 586.323 483.762H554.237H476.931C472.244 483.762 468.881 479.245 470.225 474.754L528.879 278.802Z" fill="{{CURRENT_COLOR}}"/>
<path d="M260.48 563.701C252.92 573.57 259.956 587.823 272.388 587.823H393.49C403.531 587.823 410.736 597.496 407.862 607.116L397.144 643H198C184.193 643 173 631.807 173 618V404C173 390.193 184.193 379 198 379H401.979L260.48 563.701Z" fill="{{CURRENT_COLOR}}"/>
</svg>
