<svg width="411" height="794" viewBox="0 0 411 794" fill="none" xmlns="http://www.w3.org/2000/svg">
<rect x="20.5" y="73.5" width="370" height="700" rx="54.5" stroke="{{CURRENT_COLOR}}" stroke-width="41"/>
<rect x="122" width="167" height="78" rx="25" fill="{{CURRENT_COLOR}}"/>
<path d="M306 558C319.807 558 331 569.193 331 583V668.5C331 682.307 319.807 693.5 306 693.5H105C91.1929 693.5 80 682.307 80 668.5V583C80 569.193 91.1929 558 105 558H152.36L145.524 580.897C140.803 596.712 161.362 607.442 171.637 594.526L200.691 558H306Z" fill="{{CURRENT_COLOR}}"/>
<path d="M242.483 306.75C244.768 299.131 234.595 294.21 230.04 300.73L133.691 438.641C130.449 443.281 133.769 449.65 139.429 449.65H189.274C193.954 449.65 197.316 454.153 195.985 458.64L168.426 551.58C166.186 559.134 176.198 564.056 180.811 557.669L280.983 418.984C284.327 414.355 281.019 407.885 275.308 407.885H262.454H221.564C216.875 407.885 213.512 403.366 214.859 398.875L242.483 306.75Z" fill="{{CURRENT_COLOR}}"/>
</svg>
