<svg width="411" height="794" viewBox="0 0 411 794" fill="none" xmlns="http://www.w3.org/2000/svg">
<rect x="20.5" y="73.5" width="370" height="700" rx="54.5" stroke="{{CURRENT_COLOR}}" stroke-width="41"/>
<rect x="122" width="167" height="78" rx="25" fill="{{CURRENT_COLOR}}"/>
<path d="M307 152C320.807 152 331.999 163.193 331.999 177V669C331.999 682.807 320.806 694 306.999 694H105.999C92.1921 694 81 682.807 81 669V177C81 163.193 92.1929 152 106 152H307ZM270.729 267.223C275.3 251.295 254.475 240.809 244.401 253.966L99.4668 443.257C91.9106 453.126 98.9467 467.376 111.376 467.376H160.283C170.322 467.376 177.528 477.047 174.656 486.667L146.524 580.897C141.803 596.712 162.362 607.443 172.637 594.526L312.459 418.747C320.277 408.919 313.278 394.41 300.72 394.41H254.138C244.165 394.41 236.969 384.858 239.72 375.271L270.729 267.223Z" fill="{{CURRENT_COLOR}}"/>
<path d="M243.483 306.75C245.767 299.131 235.595 294.21 231.039 300.73L134.69 438.641C131.449 443.281 134.768 449.65 140.429 449.65H190.273C194.953 449.65 198.315 454.153 196.985 458.64L169.425 551.58C167.185 559.134 177.198 564.056 181.811 557.669L281.982 418.984C285.326 414.355 282.018 407.885 276.308 407.885H263.453H222.563C217.874 407.885 214.511 403.366 215.858 398.875L243.483 306.75Z" fill="{{CURRENT_COLOR}}"/>
</svg>
