<svg width="1024" height="1024" viewBox="0 0 1024 1024" fill="none" xmlns="http://www.w3.org/2000/svg">
<rect x="0.5" y="0.5" width="1023" height="1023" stroke="{{CURRENT_COLOR}}"/>
<path d="M810 381L810 642C810 672.376 785.376 697 755 697L164 697C133.624 697 109 672.376 109 642L109 381C109 350.624 133.624 326 164 326L755 326C785.376 326 810 350.624 810 381Z" stroke="{{CURRENT_COLOR}}" stroke-width="40"/>
<rect x="934" y="408" width="208" height="78" rx="25" transform="rotate(90 934 408)" fill="{{CURRENT_COLOR}}"/>
<path d="M719 380C732.807 380 744 391.193 744 405L744 619C744 632.807 732.807 644 719 644L198 644C184.193 644 173 632.807 173 619L173 405C173 391.193 184.193 380 198 380L719 380Z" fill="{{CURRENT_COLOR}}"/>
</svg>
