<svg width="411" height="794" viewBox="0 0 411 794" fill="none" xmlns="http://www.w3.org/2000/svg">
<rect x="20.5" y="73.5" width="370" height="700" rx="54.5" fill="none" stroke="currentColor" stroke-width="41"/>
<rect x="122" width="167" height="78" rx="25" fill="currentColor"/>
<path d="M65 449C65 435.193 76.1929 424 90 424H321C334.807 424 346 435.193 346 449V703C346 716.807 334.807 728 321 728H90C76.1929 728 65 716.807 65 703V449Z" fill="currentColor"/>
<path d="M278.129 245.206C282.7 229.278 261.876 218.792 251.802 231.949L86.4674 447.881C78.911 457.75 85.9476 472 98.3772 472H122H156.868C166.907 472 174.113 481.671 171.241 491.291L137.702 603.634C132.98 619.449 153.539 630.179 163.814 617.263L323.64 416.338C331.458 406.51 324.46 392 311.901 392H292.5H255.91C245.937 392 238.741 382.448 241.492 372.862L278.129 245.206Z" fill="none"/>
<path d="M257.876 260.261C260.118 252.68 250.038 247.777 245.458 254.221L110.857 443.604C107.563 448.239 110.877 454.66 116.563 454.66H181.753C186.401 454.66 189.758 459.105 188.486 463.575L152.348 590.601C150.223 598.07 160.027 602.928 164.683 596.714L299.611 416.617C303.069 412.002 299.776 405.42 294.009 405.42H261.286H224.328C219.65 405.42 216.289 400.92 217.615 396.435L257.876 260.261Z" fill="currentColor"/>
</svg>

