<svg width="1024" height="1024" viewBox="0 0 1024 1024" fill="none" xmlns="http://www.w3.org/2000/svg">
<rect x="0.5" y="0.5" width="1023" height="1023" stroke="{{CURRENT_COLOR}}"/>
<path d="M810 381L810 642C810 672.376 785.376 697 755 697L164 697C133.624 697 109 672.376 109 642L109 381C109 350.624 133.624 326 164 326L755 326C785.376 326 810 350.624 810 381Z" stroke="{{CURRENT_COLOR}}" stroke-width="40"/>
<rect x="934" y="408" width="208" height="78" rx="25" transform="rotate(90 934 408)" fill="{{CURRENT_COLOR}}"/>
<path d="M576.25 379C590.057 379 601.25 390.193 601.25 404L601.25 618C601.25 631.807 590.057 643 576.25 643L198 643C184.193 643 173 631.807 173 618L173 404C173 390.193 184.193 379 198 379L576.25 379Z" fill="{{CURRENT_COLOR}}"/>
</svg>
