<svg width="1024" height="1024" viewBox="0 0 1024 1024" fill="none" xmlns="http://www.w3.org/2000/svg">
<rect x="0.5" y="0.5" width="1023" height="1023" stroke="{{CURRENT_COLOR}}"/>
<rect x="934" y="408" width="208" height="78" rx="25" transform="rotate(90 934 408)" fill="{{CURRENT_COLOR}}"/>
<path d="M259.48 562.701C251.92 572.57 258.956 586.823 271.388 586.823H392.49C402.531 586.823 409.736 596.496 406.862 606.116L395.546 644H198C184.193 644 173 632.807 173 619V405C173 391.193 184.193 380 198 380H399.447L259.48 562.701ZM719 380C732.807 380 744 391.193 744 405V619C744 632.807 732.807 644 719 644H528.295L654.627 485.271C662.449 475.443 655.451 460.93 642.891 460.93H525.438C515.464 460.93 508.267 451.376 511.02 441.789L528.763 380H719Z" fill="{{CURRENT_COLOR}}"/>
<path d="M527.879 277.802C530.16 270.181 519.982 265.266 515.431 271.791L325.674 543.885C322.438 548.526 325.758 554.889 331.416 554.889H433.873C438.552 554.889 441.913 559.39 440.586 563.876L382.671 759.532C380.435 767.088 390.453 772.004 395.061 765.612L591.001 493.856C594.339 489.226 591.031 482.762 585.323 482.762H553.237H475.931C471.244 482.762 467.881 478.245 469.225 473.754L527.879 277.802Z" fill="{{CURRENT_COLOR}}"/>
<path d="M129 642C129 661.33 144.67 677 164 677H385.688L373.74 717H164L163.03 716.994C122.379 716.479 89.521 683.621 89.0059 642.97L89 642V381L89.0059 380.03C89.521 339.379 122.379 306.521 163.03 306.006L164 306H456.139L425.495 346H164C144.67 346 129 361.67 129 381V642ZM755 306C796.098 306 829.475 339.056 829.994 380.03L830 381V642L829.994 642.97C829.475 683.944 796.098 717 755 717H470.194L502.03 677H755C774.33 677 790 661.33 790 642V381C790 361.67 774.33 346 755 346H538.526L550.013 306H755Z" fill="{{CURRENT_COLOR}}"/>
</svg>
