<svg width="411" height="794" viewBox="0 0 411 794" fill="none" xmlns="http://www.w3.org/2000/svg">
<path d="M68 145C68 131.193 79.1929 120 93 120H324C337.807 120 349 131.193 349 145V703C349 716.807 337.807 728 324 728H93C79.1929 728 68 716.807 68 703V145Z" fill="black"/>
<rect x="20.5" y="73.5" width="370" height="700" rx="54.5" stroke="black" stroke-width="41"/>
<rect x="122" width="167" height="78" rx="25" fill="black"/>
<path d="M278.129 245.206C282.7 229.278 261.876 218.792 251.802 231.949L86.4674 447.881C78.911 457.75 85.9476 472 98.3772 472H122H156.868C166.907 472 174.113 481.671 171.241 491.291L137.702 603.634C132.98 619.449 153.539 630.179 163.814 617.263L323.64 416.338C331.458 406.51 324.46 392 311.901 392H292.5H255.91C245.937 392 238.741 382.448 241.492 372.862L278.129 245.206Z" fill="white" fill-opacity="0.1"/>
<path d="M260.876 260.261C263.118 252.68 253.038 247.777 248.458 254.221L113.857 443.604C110.563 448.239 113.877 454.66 119.563 454.66H184.753C189.401 454.66 192.758 459.105 191.486 463.575L155.348 590.601C153.223 598.07 163.027 602.929 167.683 596.714L302.611 416.617C306.069 412.002 302.776 405.42 297.009 405.42H264.286H227.328C222.65 405.42 219.289 400.92 220.615 396.435L260.876 260.261Z" fill="black"/>
</svg>
