<svg width="411" height="794" viewBox="0 0 411 794" fill="none" xmlns="http://www.w3.org/2000/svg">
<rect x="20.5" y="73.5" width="370" height="700" rx="54.5" stroke="{{CURRENT_COLOR}}" stroke-width="41"/>
<rect x="122" width="167" height="78" rx="25" fill="{{CURRENT_COLOR}}"/>
<path d="M242.484 311.75C244.768 304.131 234.596 299.21 230.04 305.73L133.691 443.641C130.45 448.281 133.769 454.65 139.43 454.65H189.274C193.954 454.65 197.316 459.153 195.986 463.64L168.426 556.58C166.186 564.134 176.199 569.056 180.812 562.669L280.983 423.984C284.327 419.355 281.019 412.885 275.309 412.885H262.454H221.564C216.875 412.885 213.512 408.366 214.859 403.875L242.484 311.75Z" fill="{{CURRENT_COLOR}}"/>
<path d="M98.4678 448.257C90.9115 458.126 97.9484 472.376 110.378 472.376H159.284C169.324 472.376 176.529 482.047 173.657 491.667L145.525 585.897C140.804 601.712 161.363 612.443 171.638 599.526L311.46 423.747C311.493 423.706 311.523 423.663 311.556 423.621C322.689 426.148 331 436.102 331 448V669C331 682.807 319.807 694 306 694H105C91.1929 694 80 682.807 80 669V448C80 434.193 91.1929 423 105 423H117.806L98.4678 448.257Z" fill="{{CURRENT_COLOR}}"/>
</svg>
