<svg width="411" height="794" viewBox="0 0 411 794" fill="none" xmlns="http://www.w3.org/2000/svg">
<rect x="20.5" y="73.5" width="370" height="700" rx="54.5" stroke="{{CURRENT_COLOR}}" stroke-width="41"/>
<rect x="122" width="167" height="78" rx="25" fill="{{CURRENT_COLOR}}"/>
<path d="M81 666C81 652.193 92.1929 641 106 641H306C319.807 641 331 652.193 331 666V670.2C331 684.007 319.807 695.2 306 695.2H106C92.1929 695.2 81 684.007 81 670.2V666Z" fill="{{CURRENT_COLOR}}"/>
<path d="M242.484 301.75C244.768 294.131 234.596 289.21 230.04 295.73L133.691 433.641C130.45 438.281 133.769 444.65 139.43 444.65H189.274C193.954 444.65 197.316 449.153 195.986 453.64L168.426 546.58C166.186 554.134 176.199 559.056 180.812 552.669L280.983 413.984C284.327 409.355 281.019 402.885 275.309 402.885H262.454H221.564C216.875 402.885 213.512 398.366 214.859 393.875L242.484 301.75Z" fill="{{CURRENT_COLOR}}"/>
</svg>
