<svg width="1024" height="1024" viewBox="0 0 1024 1024" fill="none" xmlns="http://www.w3.org/2000/svg">
<rect x="0.5" y="0.5" width="1023" height="1023" stroke="{{CURRENT_COLOR}}"/>
<rect x="934" y="408" width="208" height="78" rx="25" transform="rotate(90 934 408)" fill="{{CURRENT_COLOR}}"/>
<path d="M530.879 278.802C533.16 271.181 522.982 266.266 518.431 272.791L328.674 544.885C325.438 549.526 328.758 555.889 334.416 555.889H436.873C441.552 555.889 444.913 560.39 443.586 564.876L385.671 760.532C383.435 768.088 393.453 773.004 398.061 766.612L594.001 494.856C597.339 490.226 594.031 483.762 588.323 483.762H556.237H478.931C474.244 483.762 470.881 479.245 472.225 474.754L530.879 278.802Z" fill="{{CURRENT_COLOR}}"/>
<path d="M129 642C129 661.33 144.67 677 164 677H386.688L374.74 717H164L163.03 716.994C122.379 716.479 89.521 683.621 89.0059 642.97L89 642V381L89.0059 380.03C89.521 339.379 122.379 306.521 163.03 306.006L164 306H457.139L426.495 346H164C144.67 346 129 361.67 129 381V642ZM755 306C796.098 306 829.475 339.056 829.994 380.03L830 381V642L829.994 642.97C829.475 683.944 796.098 717 755 717H471.194L503.03 677H755C774.33 677 790 661.33 790 642V381C790 361.67 774.33 346 755 346H539.526L551.013 306H755Z" fill="{{CURRENT_COLOR}}"/>
<path d="M288.75 379C302.557 379 313.75 390.193 313.75 404V489.557L258.48 561.701C250.92 571.57 257.956 585.823 270.388 585.823H313.75V618C313.75 631.807 302.557 643 288.75 643H196C182.193 643 171 631.807 171 618V404C171 390.193 182.193 379 196 379H288.75Z" fill="{{CURRENT_COLOR}}"/>
</svg>
